<?xml version="1.0" encoding="utf-8"?>
<!-- Generator: Adobe Illustrator 27.0.0, SVG Export Plug-In . SVG Version: 6.00 Build 0)  -->
<svg version="1.1" id="Layer_2_00000093150056782913230660000015339957966402807995_"
	 xmlns="http://www.w3.org/2000/svg" xmlns:xlink="http://www.w3.org/1999/xlink" x="0px" y="0px" viewBox="0 0 469.3 102.3"
	 style="enable-background:new 0 0 469.3 102.3;" xml:space="preserve">
<style type="text/css">
	.st0{fill:#FBF5E8;}
	.st1{fill:#AE9770;}
	.st2{fill:#F3ECCF;}
	.st3{fill:#A6906B;}
	.st4{fill:#ECD8B6;}
	.st5{fill:#B29C77;}
	.st6{fill:#A08C6C;}
	.st7{fill:#D3D1C4;}
	.st8{fill:#E3E1D9;}
	.st9{fill:#DFDBD0;}
	.st10{fill:#C7C1A9;}
	.st11{fill:#C1BCA7;}
	.st12{fill:#CCC8B7;}
	.st13{fill:#D4CEC2;}
	.st14{fill:#F5F0DE;}
	.st15{fill:#BEB59C;}
	.st16{fill:#CEC9BD;}
	.st17{fill:#B4A592;}
	.st18{fill:#BAAA84;}
	.st19{fill:#B3B0A0;}
	.st20{fill:#B9AB95;}
	.st21{fill:#C0B291;}
	.st22{fill:#DED9C3;}
	.st23{fill:#CAC3A9;}
	.st24{fill:#D2C9B2;}
	.st25{fill:#F9F4E8;}
	.st26{fill:#F7F3E0;}
	.st27{fill:#B0A07F;}
	.st28{fill:#FAF9F9;}
	.st29{fill:#BFB596;}
	.st30{fill:#A4A18B;}
	.st31{fill:#EFE5C7;}
	.st32{fill:#F6EBC3;}
	.st33{fill:#AAA37B;}
	.st34{fill:#BEBCB1;}
	.st35{fill:#C7C4B2;}
	.st36{fill:#B8B0A0;}
	.st37{fill:#D0CCBE;}
	.st38{fill:#B0B19F;}
	.st39{fill:#ADA392;}
	.st40{fill:#C8C4BD;}
	.st41{fill:#A7A391;}
	.st42{fill:#C1BEAE;}
	.st43{fill:#DCDCCF;}
	.st44{fill:#D2CCC1;}
	.st45{fill:#BBB9A7;}
	.st46{fill:#C8C7B9;}
	.st47{fill:#B3AFA5;}
	.st48{fill:#C8C4BB;}
	.st49{fill:#CBCBBA;}
	.st50{fill:#A2A18F;}
	.st51{fill:#F9F1D8;}
	.st52{fill:#DBD6C4;}
	.st53{fill:#F6F0DA;}
	.st54{fill:#CCC3AE;}
	.st55{fill:#AF9D7D;}
	.st56{fill:#B8B093;}
	.st57{fill:#F7F1E4;}
	.st58{fill:#ECE8CC;}
	.st59{fill:#C8C1AB;}
	.st60{fill:#A29066;}
	.st61{fill:#A4946F;}
	.st62{fill:#F8F3E2;}
	.st63{fill:#F9F5E8;}
	.st64{fill:#BEB69F;}
</style>
<path class="st0" d="M79.8,65.2c-1.2,0.1-3.2,3.4-3.2-0.8c0.4-2.3-0.6-3.7-2.9-4.2l0.1,0.1c-4.8-1.5-8.9-4.5-13.4-6.5l0.1,0
	c-9.3-7.1-20.6-11.4-28.8-19.9c-5.7-3.7-11.6-7-17.1-10.9c-2-4.8-6.6-7.4-9.6-11.3c0.9-11,8.2-7.1,14.2-6.1c4.3,1.2,7.7,4,11.4,6.3
	c7.7,5.9,14.4,12.9,23.2,17.4C66,39.9,80.8,46.2,95.1,53.5c4.6,2.3,9.4,4.2,13.9,6.7c4.6,3.2,9.7,5.1,15.3,5.8
	c10.6,5.1,21.7,8.4,33,11.4c1,0.3,2,0.7,3,1.2c1.4,0.7,2.7,1.4,4.1,2c1.4,0.5,2.9,0.9,4.3,1.2c1,0.2,2,0.6,3,1
	c1,0.5,1.9,1.1,2.7,1.8c2.2,2.3,5.5,4.1,3.8,8.2c-0.7,0.9-1.6,1.4-2.7,1.8c-2.1-0.3-4.3-0.1-6.4,0h-0.1c-6-3.1-12.9-3-19-5.8l0,0.1
	c-8.6-2.7-17.4-4.4-26-7.2c-12.5-2.5-24.1-7.4-35.5-13c0.2-0.8,0-1.4-0.5-1.8s-0.8-0.4-1-0.3l0.2,0.1C84.6,66.6,82.2,66.1,79.8,65.2
	L79.8,65.2L79.8,65.2z"/>
<path class="st1" d="M344.2,85.4c-2.4,1.7-4.7,3.5-8,2l0.2,0.1c-1.3,0.8-2.7,1.6-4,2.4c-17.9,0.3-35.2,4.6-52.9,6.8
	c-7.3-0.8-14.6,1.2-21.9,0c-1.1-0.2-2.2-0.6-3.3-1c-1-0.5-1.9-1.3-2.6-2.2c-0.5-1.8,0-3.3,1.4-4.6c1-0.7,2-1.1,3.1-1.4
	c1.7-0.4,3.4-0.7,5.1-1c18.4-2.9,37.3-1.4,55.4-6.7c9.5-2.1,19.1-3.9,28.7-5.3c2.7,0.7,3.1,2.5,2.3,4.8c-0.3,0.9-0.7,1.8-1.1,2.7
	c-0.4,0.9-0.8,1.7-1.4,2.4C344.8,84.7,344.5,85.1,344.2,85.4L344.2,85.4L344.2,85.4z"/>
<path class="st2" d="M256.3,94.2c7.4,1.3,15-2.8,22.3,0.8c-0.2,1.3-0.8,2.2-1.9,2.9c-6.2,4.2-13,2.1-19.6,2.3h0.1
	c-5,0.2-9.8,2.9-14.8,0.6l0.1,0c-5.4-0.3-10.7,0.5-16.1,0.1c-1.1,0.8-2.7-1.1-3.7,0.6c-0.4,0.3-0.8,0.5-1.2,0.8
	c-2.8,0.1-5.7,0.1-8.5,0.1c-0.7-1.3-1.3-2.6-1.7-4c-0.8-2.3-3-4.3-1.8-7.1c1.8-1.6,4-1.8,6.2-1.8c12.5,1.1,25.2-0.6,37.3,4.2l0,0
	C254.1,94,255.1,94.2,256.3,94.2L256.3,94.2L256.3,94.2z"/>
<path class="st3" d="M345,81.5l3.2-5.2c0.4-1.5,1.5-2.4,2.9-3c1.8-0.6,3.6-1,5.4-1.6c0.9-0.3,1.8-0.6,2.7-0.7c1.4-0.3,2.7-0.6,4.1-1
	c1.4-0.5,2.8-0.9,4.2-1.3c2-0.6,3.8-1.3,5.7-2.2c1.5-0.7,3-1.3,4.6-1.9c3.6-1,6.5-3.3,9.5-5.3c10.8-4.5,20.1-13.5,33.2-10.6
	c-1.1,7.2-7.6,7.9-12.6,10.6c-9.6,7.2-20.2,12.2-31.9,14.8C365.3,75.2,356.2,82.6,345,81.5C345,81.5,345,81.5,345,81.5z"/>
<path class="st4" d="M276.1,96.8c0.8-0.6,1.7-1.2,2.5-1.8c17-4.9,34.8-5.6,52.2-8.1c0.4-0.1,1.1,2,1.7,3c-5.1,1.9-9.8,5.1-15.7,4.5
	c-1-1.6-2.4-0.6-3.7-0.8h0.3c-2.1-0.6-3.9,1-5.9,0.7l0.2,0c-2-0.4-3.6,0-4.2,2.3c-3.8,0.2-7.2,3.2-11.3,1.8
	c-1.2-0.3-2.4-0.7-3.7-0.7l0.2,0c-2-0.7-3.8,1-5.8,0.7l0.2,0c-2-0.7-3.8,1-5.8,0.7l0.1,0.1c-1-0.1-1.5-0.5-1.6-1.1
	S275.9,97,276.1,96.8L276.1,96.8L276.1,96.8z"/>
<path class="st5" d="M407.8,59.2c3.5-4.1,10.3-4.6,11.7-10.9c0.7-5.1,4.4-8.1,8.3-10.3c13.2-7.3,23.5-20.1,39.8-21.7
	c0.4,0.8,0.8,1.7,1.2,2.5c0.6,1.1,0.5,2.2-0.2,3.3c-0.7,0.5-1.5,0.8-2.3,1c-14.3,7.2-27.5,16-39.9,26.1
	C420.8,53.6,415.2,58,407.8,59.2L407.8,59.2L407.8,59.2z"/>
<path class="st1" d="M345,81.5c10-3.6,20-7.5,30.9-7.5c-10.3,4.5-20.3,10.1-31.7,11.4l0,0.2c0.3-1,0.5-2.1,0.7-3.2L345,81.5
	L345,81.5L345,81.5z"/>
<path class="st6" d="M426.5,49.2c11.4-11.7,24.7-20.4,39.9-26.1C453.8,32.8,440.4,41.3,426.5,49.2z"/>
<path class="st7" d="M31.9,33.2c8.7,8,21.3,10.7,28.6,20.6c-12-3.6-21.3-11.4-30.7-19.2C29.8,33.1,30.5,32.6,31.9,33.2L31.9,33.2
	L31.9,33.2z"/>
<path class="st8" d="M124,81.6c9.1,0.9,18.5,0.6,26,7.2C140.1,90.6,131.9,86.4,124,81.6z"/>
<path class="st9" d="M149.9,88.8c6.7,0.6,13.8-0.1,19,5.8C162.1,94.1,155.1,94.6,149.9,88.8z"/>
<path class="st10" d="M276.1,96.8c0.5,0.8,0.9,1.5,1.4,2.3c-6.6,3.9-13.4,5-20.4,1.1C262.9,96.2,270.3,101.1,276.1,96.8L276.1,96.8z
	"/>
<path class="st11" d="M224.3,100.5c6.1-1.6,12.1-2.2,18.2,0.3c-6.8,3.5-13.9,1.7-20.9,1.5c0.3-0.3,0.7-0.6,1.1-0.8l0.4-1.2
	L224.3,100.5L224.3,100.5L224.3,100.5z"/>
<path class="st12" d="M213.7,98.2c-0.2,1.4-0.5,2.8-0.7,4.1c-4.7-1.1-9.4-2.2-14.1-3.2c0.2-0.6,0.3-1.1,0.5-1.7
	C204.4,92.9,209.1,96.1,213.7,98.2L213.7,98.2L213.7,98.2z"/>
<path class="st7" d="M60.4,53.7c5.8-0.7,9.8,2.6,13.4,6.5C68,60.8,63.3,59.2,60.4,53.7z"/>
<path class="st10" d="M242.3,100.8c4.9-0.6,9.8-1.9,14.8-0.6C252.3,102.7,247.5,106,242.3,100.8z"/>
<path class="st13" d="M174.3,93.7l2.3-1.1c2.9-0.4,5.4,0,6.5,3.2c0,0.5-0.1,1.1-0.2,1.6c-3.9,0.6-7.5-0.3-11-2
	C172.1,94.2,172.9,93.6,174.3,93.7L174.3,93.7L174.3,93.7z"/>
<path class="st12" d="M198.9,99.1c-2.9,1.7-5.2,0.9-7-1.7c0.4-0.4,0.9-0.9,1.3-1.3c2.6-0.4,5-0.4,5.7,2.9L198.9,99.1L198.9,99.1
	L198.9,99.1z"/>
<path class="st7" d="M79.8,65.2c2.7-0.9,5.1-0.3,7.3,1.4C84.2,68.5,81.8,67.6,79.8,65.2z"/>
<path class="st14" d="M174.3,93.7c-0.8,0.6-1.6,1.2-2.4,1.8c-1-0.3-2-0.6-2.9-0.9C170.6,93.4,172.3,92.8,174.3,93.7z"/>
<path class="st7" d="M73.7,60.1c3,0.1,4.2,1.3,2.9,4.2C75.6,62.9,74.6,61.5,73.7,60.1z"/>
<path class="st15" d="M277.4,99c1.8-1,3.7-2.2,5.8-0.7C281.4,99.9,279.5,100.2,277.4,99z"/>
<path class="st16" d="M188.5,96.8c-1.8,1.1-3.6,2.1-5.7,0.7v0.1c0.7-3,2.5-3.4,5-2.3L188.5,96.8L188.5,96.8z"/>
<path class="st17" d="M283,98.3c1.8-1,3.7-2.2,5.8-0.7C287,99.1,285.1,99.8,283,98.3z"/>
<path class="st18" d="M303.6,96.7c0.1-3.1,1.3-4.1,4.2-2.3C306.3,95.1,305,95.9,303.6,96.7z"/>
<path class="st1" d="M307.5,94.3c2-0.2,3.9-0.4,5.9-0.7C311.5,94.9,309.7,95.9,307.5,94.3z"/>
<path class="st1" d="M313.1,93.6c1.2,0.6,3.3-3.5,3.7,0.8C315.5,94.1,314.3,93.9,313.1,93.6z"/>
<path class="st7" d="M86.9,66.5c1.9-0.3,2.5,0.3,1.5,2.1C88,67.9,87.4,67.2,86.9,66.5z"/>
<path class="st19" d="M191.9,97.4c-1.1-0.2-2.2-0.5-3.3-0.7l0.1,0.1C190.1,95.1,191.2,95.3,191.9,97.4L191.9,97.4L191.9,97.4
	L191.9,97.4z"/>
<path class="st20" d="M288.6,97.7c1.2,0.3,2.5,0.5,3.7,0.7C291,98.1,289.8,97.9,288.6,97.7z"/>
<path class="st21" d="M52.2,32c2-6.4-4.3-7.8-6.9-11.4c0.2-1.8-2.2-4.5,0.5-5.4c4.7-1.6,7.4,2.2,10.2,5.2
	c7.4,14.1,22.4,18,34.7,25.6c1.6,1.1,2.8,2.5,3.8,4.2c0.9,1.8,1.3,3.7,0.6,5.6C79,51,65.2,42.3,52.2,32L52.2,32L52.2,32z"/>
<path class="st14" d="M191.8,97.5c-1.1-0.2-2.2-0.5-3.2-0.7c-2.1-1.3-3.9-0.5-5.8,0.6c-2.1-1.6-4.2-3.3-6.3-4.9
	c0.5-4.3-4.6-4.9-5.5-8.3c6.1-4.3,11.9,1.7,17.9,0.7c7.1,1.9,15.7-0.4,20.6,7.4c0.7,2.4,5.1,2.3,4.1,5.9c-4.9,1.3-10-2.9-14.8,0.7
	C196.8,97.3,194.4,96.9,191.8,97.5L191.8,97.5L191.8,97.5z"/>
<path class="st22" d="M159,80c-12.7-2-25.4-4.2-35.5-13.2c0.4-0.5,0.7-0.9,1.1-1.4c12.8-0.9,24.6,2.4,35.3,9.5
	C160.5,76.8,160.3,78.5,159,80z"/>
<path class="st23" d="M159,80c0.3-1.2,0.5-2.4,0.8-3.6c0.5-0.2,1-0.5,1.4-0.7c1.1-0.2,2.1-0.2,3.2-0.2c0.5,0,1.1,0.1,1.6,0.2
	c1.1,0.1,2.2,0.3,3.2,0.5c7.3,2.5,15.6,1,22.3,5.7c0.7,2.8-2.3,3.6-3,5.6c-6.2,0.9-11.6-2.3-17.5-3.3l-0.2-0.1c-1-0.4-2-0.6-3.1-0.6
	l-3.8-0.9c-1.1-0.4-2.2-0.7-3.4-1.1C160.1,81.1,159.5,80.5,159,80L159,80L159,80z"/>
<path class="st22" d="M123.5,66.8c-6.8,3.5-11-1-15.4-5c-0.6-2.2-0.2-4,1.8-5.2C117.9,55.3,123.3,57.5,123.5,66.8L123.5,66.8
	L123.5,66.8L123.5,66.8z"/>
<path class="st24" d="M108.8,58.2c-0.3,1.2-0.5,2.4-0.8,3.6c-4.6-1.5-9.7-2-13.1-6.1c-1-1.6-2-3.1-2.9-4.7
	C99.8,48.5,104.8,52.3,108.8,58.2C108.8,58.2,108.8,58.2,108.8,58.2z"/>
<path class="st22" d="M160.6,81.7c1.1,0.4,2.2,0.7,3.4,1.1C162.9,82.3,161.8,82,160.6,81.7z"/>
<path class="st14" d="M167.8,83.6c1,0.2,2,0.4,3.1,0.6C169.8,84,168.8,83.8,167.8,83.6z"/>
<path class="st25" d="M467.7,16.3c-16.1,10.6-32.1,21.3-48.2,32c-10.7,4.8-21.4,9.7-32.1,14.5c-3.9,0-6.1,4-10,4.2
	c-1.4,0.7-2.8,1.5-4.2,2.2c-2-0.1-3.6,1.2-5.5,1.3l-3.8,1.5c-1.2,0.8-2.6,0.5-4,0.5c-0.8-0.1-1.5,0.1-2.1,0.7
	c-2-0.1-3.6,1.3-5.6,1.3c-1.3,0.6-2.7,1.2-4.1,1.7c-10.1,2-20.3,3.9-30.4,5.8c-14-1-27.6,3.8-41.6,2.9c-4.5-0.3-7.4-0.3-6.5-5.8
	c4.5-6.9,12.2-4.6,18.5-6.2c1-0.2,2.1-0.3,3.1-0.3c2-0.2,4-0.7,6-1.3c1-0.3,2-0.5,3-0.6c2.1-0.3,4.2-0.6,6.4-0.8
	c6.5,0,12.3-2.5,18.2-4.4c3.4-0.8,6.8-1.1,10.1-2.1c3.9-1,7.9-2.1,11.7-3.4c5.2-1.5,10-4.3,15.2-5.8c6.5-2.4,13-4.5,19.5-6.9
	c2.4-1.2,4.8-2.2,7.3-3c10.4-5.7,21.1-10.8,31.5-16.4c8.9-5.7,17.7-11.6,26.5-17.4c5.8-4.2,12.2-7,19.3-8.1
	C466.6,7.2,467.1,11.8,467.7,16.3L467.7,16.3L467.7,16.3z"/>
<path class="st26" d="M270.4,78.8c6.3,6.4,14.9,5.2,21.4,3.1c9.2-3,17.3-2,25.9,0.3c-18.9,5.9-38.6,5.2-58,6.9
	c-1.3,0.4-2.6,0.2-3.9-0.1l0,0c-13.2,4.4-26.6,0.5-39.9,0.7c-8.1-2.8-17.7,0.2-24.7-6.6c-8.1-1.8-16.6-1.8-24.4-5.3
	c-1.2-0.2-2.3-0.5-3.5-0.7l0,0c-1.2-0.2-2.3-0.6-3.5-0.6l0,0c-11.9-4.1-23.6-9-36.3-9.6c-3-6-7.6-9.4-14.6-8.6
	c-5.6-2.4-11.2-4.8-16.8-7.2c-1-1.2-2-2.4-2.9-3.6c-3.6-5.2,2.4-4.8,4.1-7c17.9,8,37.8,10.4,55.4,19.6c3.8,3.3,8.3,4.6,13.2,5.4
	c1,0.2,2.1,0.4,3.1,0.6c3.5,0.9,7,1.6,10.5,2.5c1,0.2,1.9,0.6,2.9,0.9c1.8,0.7,3.8,1.1,5.8,1.2c1,0,2,0.1,3.1,0.3
	c4.1,0.5,8.3,2,12.2-0.7c4.8-1.5,10.6-10.9,13.6,1.7c-0.6,1.7-1.8,2.7-3.4,3.2c-0.8,0.4-1.3-0.1-1.8-0.7c-0.3,0.9,0.1,1.2,1.3,0.8
	c3.2-0.2,6.3-1,9.5-0.9c1.1-0.1,2.2,0,3.2,0.1c4.8,0.9,9.5,1.7,14.4,0.6c1.1-0.1,2.1-0.1,3.2,0c3.1,0.6,6.2,0.8,9.3,0.4
	c1-0.1,2-0.1,3.1-0.1c2,0.1,4,0.3,6.1,0.3c2-0.1,4,0,6.1,0.2C266.3,76.4,269.1,75.8,270.4,78.8L270.4,78.8L270.4,78.8z"/>
<path class="st27" d="M215.9,87.9c13.3,0.3,26.6,0.7,40,1c-1.6,1.2-3,2.5-2.8,4.8c-12.8,1.2-25.3-0.4-37.9-2.2
	C213.2,89.8,213.5,88.7,215.9,87.9L215.9,87.9L215.9,87.9z"/>
<path class="st28" d="M336.4,87.5c0.5-1,1.1-1.9,1.6-2.9c1.4,2.2-1.5,1.7-1.8,2.8C336.2,87.4,336.4,87.5,336.4,87.5z"/>
<path class="st27" d="M255.8,88.9c1.3,0.1,2.6,0.1,3.9,0.1C258.4,88.9,257.1,88.9,255.8,88.9z"/>
<path class="st27" d="M256.3,94.2c-1.1-0.2-2.2-0.3-3.2-0.5C254.1,93.9,255.2,94,256.3,94.2z"/>
<path class="st28" d="M344.8,82.4c-0.2,1.1-0.5,2.1-0.7,3.2C344.3,84.5,344.6,83.4,344.8,82.4z"/>
<path class="st29" d="M215.9,87.9c-0.2,1.2-0.5,2.3-0.7,3.5c-1.8,0.3-3.7,0.6-5.5,0.9c-7-1.6-14.1-3.2-21.1-4.8
	c-0.2-2.2,1.1-3.5,2.7-4.6C199.2,85.9,208.2,83.6,215.9,87.9L215.9,87.9L215.9,87.9z"/>
<path class="st30" d="M224.3,100.5l-0.9,0.4l-0.8,0.6c-0.1-0.6-0.2-1.1-0.2-1.7L224.3,100.5z"/>
<path class="st1" d="M377.5,67c3-2.2,6-4.4,10-4.2C384.4,64.8,381.8,68.1,377.5,67z"/>
<path class="st1" d="M367.7,70.5c1.8-0.4,3.7-0.9,5.5-1.3C371.6,70.5,369.9,71.3,367.7,70.5z"/>
<path class="st1" d="M352.2,74.5c1.6-1.5,3.5-1.9,5.6-1.3C356.2,74.5,354.4,75.4,352.2,74.5z"/>
<path class="st1" d="M360,72.5c1.3-0.2,2.6-0.3,4-0.5C362.6,72.2,361.3,72.4,360,72.5z"/>
<path class="st31" d="M54.7,21.2c2.7,1.3,5.4,2.5,8.1,3.8c1.1,4.1,5,4.9,7.8,7c2.5-0.4,4.8,0.1,6.8,1.9c-0.4,0.9-0.2,1.6,0.5,2.3
	l1-0.7c4.4,2.2,8.8,4.4,13.2,6.5c-1,1.8-2,3.7-3,5.5C75.8,41.1,60.1,37.9,54.7,21.2L54.7,21.2L54.7,21.2z"/>
<path class="st22" d="M159.9,76.4c1.2,0.2,2.3,0.4,3.5,0.6C162.2,76.8,161,76.5,159.9,76.4z"/>
<path class="st22" d="M163.4,76.9c1.2,0.2,2.3,0.5,3.5,0.7C165.7,77.4,164.5,77.2,163.4,76.9z"/>
<path class="st32" d="M421.2,31.5c-10.9,5.1-20.7,12.5-32.4,16c-1.1-1.5-2.2-3-2.8-4.8c-0.5-2-0.4-3.8,0.7-5.5
	c3.4-4.7,9-5.2,13.8-7.6c12-3,22.1-11,34.4-13.3c3.5,3.5-0.1,4.8-2.1,6.4C429.1,25.7,424.1,27.2,421.2,31.5L421.2,31.5L421.2,31.5z"
	/>
<path class="st33" d="M421.2,31.5c2-7.2,11.9-6.9,13.8-14.3c-0.6-2.5-0.1-4.4,2.7-5.1c1.9-0.2,3.8-0.4,5.7-0.7
	c1.3,0,2.8-0.7,3.9,0.6c0.4,0.5,0.7,1.2,0.9,1.8C439.2,19.8,430.2,25.6,421.2,31.5L421.2,31.5L421.2,31.5z"/>
<path class="st34" d="M266.3,75.8c8.5-0.5,16.7-6.3,25.5-1.3c-6.6,3.8-14.6,1.3-21.3,4.3c-2.3-0.4-4.5-0.7-6.8-1.1
	C264,76.4,264.9,75.7,266.3,75.8L266.3,75.8L266.3,75.8z"/>
<path class="st35" d="M303.6,69.9c1.9-0.4,3.8-0.7,5.7-1.1c5.7,0.3,9.9-6.7,16.2-3.5c0.2,0.5,0.4,1.1,0.6,1.6
	c-6.4,3.9-12.8,7.6-20.8,5.2c-1-0.1-1.6-0.4-1.7-1.1C303.4,70.5,303.4,70.1,303.6,69.9L303.6,69.9z"/>
<path class="st36" d="M382.1,50.9c-6.5,2.3-13,4.7-19.5,7c-1.5-0.5-2-1.5-1.5-3c5-6.5,11.5-8.8,19.4-7.5
	C381.6,48.3,382.1,49.4,382.1,50.9L382.1,50.9L382.1,50.9z"/>
<path class="st37" d="M361.4,56.2c0.4,0.6,0.8,1.2,1.3,1.7c-5.7-0.3-9.5,5.8-15.5,4.5c-1.5-0.6-1.9-1.7-1.2-3.2
	C350.8,56.3,354.9,50.3,361.4,56.2L361.4,56.2z"/>
<path class="st38" d="M345.7,60.5c0.5,0.6,1,1.2,1.5,1.8c-4,1.5-8,3-12,4.5c-1.5-0.5-2-1.5-1.5-3C336.7,59.4,340.7,58.3,345.7,60.5
	L345.7,60.5z"/>
<path class="st35" d="M333.7,64.8c0.5,0.7,1,1.4,1.5,2.1c-3,0.6-6,1.7-9.1,0.2v0C327.8,63.5,329.8,61,333.7,64.8L333.7,64.8
	L333.7,64.8z"/>
<path class="st39" d="M382.1,50.9c-0.3-0.5-0.7-1-1-1.4c1.2-4.4,3.9-6.4,8.5-5.1c-0.2,1.1-0.5,2.1-0.7,3.2
	C386.6,48.7,384.3,49.8,382.1,50.9L382.1,50.9L382.1,50.9z"/>
<path class="st40" d="M291.6,74.5c2.4-1.4,4.6-3.7,7.8-2.1C297,73.9,294.8,76.1,291.6,74.5z"/>
<path class="st41" d="M303.6,69.9c0.6,0.8,1.1,1.5,1.7,2.3c-2,0.6-4,1.8-6,0.2C300.7,71.6,302.2,70.8,303.6,69.9L303.6,69.9
	L303.6,69.9z"/>
<path class="st42" d="M220.1,76c6.2-3.3,12.3,0.3,18.4,0.2C232.3,80.5,226.2,79.1,220.1,76z"/>
<path class="st43" d="M148,62.8c6.1-1.2,11.4-0.1,15.5,5.1C157.8,67.8,152,67.9,148,62.8z"/>
<path class="st44" d="M184.4,72.2c5.8-2.9,11.2-0.3,16.7,1.3C195.2,77.3,189.8,74.3,184.4,72.2z"/>
<path class="st43" d="M163.4,67.8c5.4-2.7,10.1-1.7,14,2.9C172.5,71.1,167.8,70.3,163.4,67.8z"/>
<path class="st45" d="M238.3,76.1c4.3-0.3,8.7-2.1,12.8,0.8C246.7,79.4,242.3,80.5,238.3,76.1z"/>
<path class="st46" d="M211.8,72.7c2.8,1.1,5.6,2.2,8.4,3.3c-4.4,2.5-8.7,1.9-12.7-0.8l0,0.1C208.9,74.4,210.3,73.5,211.8,72.7
	L211.8,72.7z"/>
<path class="st47" d="M266.3,75.8c-0.9,0.6-1.8,1.3-2.7,1.9c-1.9,0.2-3.8,0.3-5.7,0.4c-1,0-1.5-0.2-1.6-0.8c-0.1-0.6-0.1-1,0.1-1.1
	C259.7,74,263,74.7,266.3,75.8L266.3,75.8z"/>
<path class="st48" d="M256.5,76.1c0.5,0.7,1,1.3,1.5,2c-2.5,0.7-4.9,0.6-7-1.2C252.7,75.8,254.4,75,256.5,76.1L256.5,76.1z"/>
<path class="st49" d="M177.4,70.7c2.7-0.7,5-0.2,7.2,1.5C181.7,73.9,179.3,73.5,177.4,70.7z"/>
<path class="st50" d="M207.5,75.1c-0.6-0.1-1.1-0.2-1.7-0.3c0.3-0.1,0.6-0.3,0.8-0.3c0.3,0.1,0.6,0.4,0.9,0.7L207.5,75.1L207.5,75.1
	L207.5,75.1z"/>
<path class="st51" d="M389.6,44.4c-2.8,1.7-5.7,3.4-8.5,5.1c-7.3,0.1-13.8,2.6-19.7,6.8c-6-1.6-10,4.6-15.7,4.3c-4,1.4-8,2.8-12,4.3
	c-3.1-1.3-5.3,0.6-7.6,2.2c-5.6,0.6-11.2,1.2-16.8,1.8c2.1-1.7,4.3-3.3,7-5.5c-5.1-2.6-11.5,2.3-14.1-4.3c0.1-0.7,0.2-1.3,0.3-1.9
	c5.5-6.2,13.3-3.7,20-5.2c18.2-4.2,36.7-7.6,54.6-13.1c3.2-1,6.5-1.8,9.5,0.7L389.6,44.4L389.6,44.4L389.6,44.4z"/>
<path class="st52" d="M143.4,32.8c6.8,2.5,13.5,4.9,20.3,7.4c1.1,1.8,1.3,3.7,0.6,5.7c-19.3-6.4-38.6-12.8-58-19.2
	c-1.2-0.2-2.1-0.9-2.6-2c-0.6-2.4-1-4.7,0.9-6.7C118.8,19.8,130.1,29,143.4,32.8L143.4,32.8L143.4,32.8z"/>
<path class="st53" d="M302.2,59.1c-12.2,11.1-27.4,4.7-41.2,7c-2.7,0.4-3.8-2.8-5.1-4.8c3-5.7,8.5-4.3,13.3-4.8
	c9,0.5,18-1.5,27.1-0.8c2.4,0.2,5.1-0.5,6,2.8L302.2,59.1L302.2,59.1L302.2,59.1z"/>
<path class="st54" d="M164.3,45.8c-1.2-1.8-1.7-3.7-0.6-5.7l10.4,2.5c1.1,0.3,2.2,0.5,3.4,0.5c0.7-0.2,1.4-0.4,2-0.8
	c2.2-0.1,3.1,2.3,5.1,2.5l0,0c1.2,0.3,2.3,0.5,3.5,0.8l0,0c2,0.6,3.7-1.2,5.6-0.5h-0.1c3.4,1.4,6.9,2.2,10.6,2.2l-0.1,0
	c1.2,0,1.8,0.6,2.1,1.7c-0.3,2.3-1.5,3.9-3.5,5C189.3,54.6,177.3,47.8,164.3,45.8L164.3,45.8L164.3,45.8z"/>
<path class="st55" d="M269.4,59.2c-4.5,0.7-9,1.4-13.4,2.1c-6.2-3.4-13-1.1-19.4-2c-2.8-0.2-6,1-8.3-1.8c-0.6-1.9,0.1-3.5,1.4-4.9
	c13.6-2.3,27.1-2.4,40.5,1.6C271.1,56,270.8,57.7,269.4,59.2L269.4,59.2L269.4,59.2z"/>
<path class="st56" d="M230.3,54c-0.3,1.2-0.6,2.4-0.9,3.6c-0.2,1.3-0.8,1.8-2.1,1.2c-5.8-1.1-11.7-2.1-17.5-3.2
	c-2.4,0.1-4.7-0.4-6.9-1.5l0,0c-0.2-2.2,1.2-3.5,2.8-4.7c5.6-2,10.8,0,16.1,1.2l0.1,0C224.7,51.6,228.8,49.8,230.3,54L230.3,54
	L230.3,54z"/>
<path class="st57" d="M78.2,11.3c1.2,0.3,2.4,0.5,3.6,0.8c6.4,1.6,13.2,2.3,16.2,9.5c-0.1,0.6-0.2,1.2-0.2,1.8
	C88.5,23.9,81.9,20,78.2,11.3L78.2,11.3z"/>
<path class="st58" d="M227.3,58.7c0.7-0.3,1.4-0.7,2.1-1.2c2.4,0.5,4.8,1.1,7.2,1.6C233.3,61.4,230.2,63.4,227.3,58.7L227.3,58.7
	L227.3,58.7z"/>
<path class="st57" d="M104.9,24.3c0.5,0.8,1,1.6,1.5,2.4c-3.6,0.8-6.3-0.4-8.5-3.3l0.2-0.6C100.9,20.5,103.3,20.8,104.9,24.3z"/>
<path class="st54" d="M202.9,54c2.3,0.5,4.6,1,6.9,1.5C207,57.3,204.7,56.9,202.9,54z"/>
<path class="st59" d="M79,35.4c-0.3,0.6-0.7,1.8-0.8,1.8c-2-0.7-1.6-2-0.8-3.4C77.9,34.4,78.5,34.9,79,35.4L79,35.4L79,35.4z"/>
<path class="st60" d="M437.7,12.1c-0.9,1.7-1.8,3.4-2.7,5.1c-10.4,7.5-22.1,12.2-34.4,15.6c-2.6-4.4,1.3-5.8,3.7-7.9
	c7.8-7,19.7-7.1,26.5-15.7c1-0.9,2.2-1.4,3.5-1.6C435.4,9.1,436.6,10.6,437.7,12.1L437.7,12.1L437.7,12.1z"/>
<path class="st61" d="M406,26.2c-2,2.1-5.1,3.2-5.5,6.6c-4.7,2.2-9.3,4.5-14,6.7c-27.5,8.8-55.7,14.7-84.3,19
	c-11,0.2-22,0.5-32.9,0.8c0.4-1.5,0.7-3.1,1.1-4.6c6.6-6.4,15.1-3,22.5-3.8c29.9-3.4,59.3-8.3,87.8-18.6
	C388.6,29.3,397,25.6,406,26.2L406,26.2L406,26.2z"/>
<path class="st62" d="M406,26.2c-30.6,11.6-61.7,21.4-94.4,25.1c-13.7,1.5-27.5,2.2-41.2,3.3c-13.4-0.2-26.8-0.4-40.2-0.5
	c-2.8-1.2-5.6-2.3-8.4-3.5c17.7-6.2,36-1.7,54-2.2c13.9-0.4,28-0.3,41.4-3.7c10.1-2.6,20.3-4.2,30.4-5.9c11.6-2,22.1-6.1,33.1-9.8
	c10.2-3.5,20.4-6.6,30.6-10.4c9-3.4,13.4-11,20.9-15.1c-0.5,1.9-3.4,4.1,0.5,5.6c-1.6,7.5-8.6,7.3-13.8,9.9
	C414.6,21.2,410.3,23.7,406,26.2L406,26.2L406,26.2z"/>
<path class="st63" d="M143.4,32.8c-14.9,0.5-25.9-9.7-39.1-14c-7.1,0.6-13-0.9-15.5-8.6C89.7,5.9,86,4.6,84,2.1
	c4.9-4.3,7.8-1.1,11.5,2.3c11,10.3,25.1,15.2,38.7,20.7C138.5,26.8,141.2,29.1,143.4,32.8L143.4,32.8L143.4,32.8z"/>
<path class="st62" d="M221.8,50.5c-5.6,2.4-10.8-0.3-16.1-1.2c-0.5-0.6-1-1.3-1.4-2c1.4-1,2.9-2,4.3-3l0,0
	C212.5,47.3,219.7,43.3,221.8,50.5L221.8,50.5L221.8,50.5z"/>
<path class="st62" d="M204.3,47.3c-4.2,2.4-7.6,1.3-10.6-2.2C197.5,44.3,201,45.1,204.3,47.3z"/>
<path class="st62" d="M184.7,44.8c-1.7-0.8-3.4-1.7-5.1-2.5C181.9,41.7,183.4,43,184.7,44.8z"/>
<path class="st62" d="M193.8,45.1c-1.8,1-3.7,1.6-5.6,0.5C189.9,44.5,191.8,43.8,193.8,45.1z"/>
<path class="st62" d="M188.2,45.6c-1.2-0.3-2.3-0.5-3.5-0.8C185.8,45.1,187,45.4,188.2,45.6z"/>
<path class="st62" d="M208.5,44.4c0-0.4-0.1-0.8-0.1-1.2C208.4,43.6,208.5,44,208.5,44.4L208.5,44.4L208.5,44.4z"/>
<path class="st62" d="M177.5,43.1c-1.1-0.1-2.2-0.3-3.4-0.5C175.2,42.8,176.4,43,177.5,43.1z"/>
<path class="st64" d="M88.9,10.1c4,4.8,10.7,5.1,15.5,8.6c0.8,1.8,1.8,3.6,0.6,5.6c-2.3-0.5-4.6-1-6.9-1.5
	c-5.4-3.6-10.8-7.1-16.1-10.7C84.2,11.4,86.5,10.8,88.9,10.1L88.9,10.1L88.9,10.1z"/>
</svg>
